<svg width="26" height="26" viewBox="0 0 26 26" fill="none" xmlns="http://www.w3.org/2000/svg">
<path d="M20.25 23.1351H5.08333C4.48502 23.1351 4 22.6501 4 22.0518V11.667C4 11.3797 4.11424 11.1042 4.31742 10.9011L11.9008 3.31773C12.104 3.1143 12.3797 3 12.6672 3C12.9547 3 13.2305 3.1143 13.4337 3.31773L21.017 10.9011C21.2204 11.1039 21.3343 11.3797 21.3333 11.667V22.0518C21.3333 22.6501 20.8483 23.1351 20.25 23.1351ZM10.5 15.5518H14.8333V20.9685H19.1667V12.1155L12.6667 5.61548L6.16667 12.1155V20.9685H10.5V15.5518Z" fill="#767676"/>
</svg>
