<svg width="26" height="26" viewBox="0 0 26 26" fill="none" xmlns="http://www.w3.org/2000/svg">
<path d="M7.25 8.41667C7.25 5.42512 9.67512 3 12.6667 3C15.6582 3 18.0833 5.42512 18.0833 8.41667C18.0833 11.4082 15.6582 13.8333 12.6667 13.8333C9.67512 13.8333 7.25 11.4082 7.25 8.41667ZM12.6667 11.6667C14.4616 11.6667 15.9167 10.2116 15.9167 8.41667C15.9167 6.62174 14.4616 5.16667 12.6667 5.16667C10.8717 5.16667 9.41667 6.62174 9.41667 8.41667C9.41667 10.2116 10.8717 11.6667 12.6667 11.6667Z" fill="#767676"/>
<path d="M6.53841 17.4551C4.91309 19.0804 4 21.2848 4 23.5833H6.16667C6.16667 21.8594 6.85149 20.2061 8.07047 18.9871C9.28946 17.7682 10.9428 17.0833 12.6667 17.0833C14.3906 17.0833 16.0439 17.7682 17.2629 18.9871C18.4818 20.2061 19.1667 21.8594 19.1667 23.5833H21.3333C21.3333 21.2848 20.4202 19.0804 18.7949 17.4551C17.1696 15.8298 14.9652 14.9167 12.6667 14.9167C10.3681 14.9167 8.16372 15.8298 6.53841 17.4551Z" fill="#767676"/>
</svg>
