<svg width="26" height="26" viewBox="0 0 26 26" fill="none" xmlns="http://www.w3.org/2000/svg">
<path d="M3 12.75C3 11.7835 3.67157 11 4.5 11C5.32843 11 6 11.7835 6 12.75V16.25C6 17.2165 5.32843 18 4.5 18C3.67157 18 3 17.2165 3 16.25V12.75Z" fill="#FC5C42"/>
<path d="M11 12.75C11 11.7835 11.6716 11 12.5 11C13.3284 11 14 11.7835 14 12.75V16.25C14 17.2165 13.3284 18 12.5 18C11.6716 18 11 17.2165 11 16.25V12.75Z" fill="#383B65"/>
<path d="M19 12.75C19 11.7835 19.6716 11 20.5 11C21.3284 11 22 11.7835 22 12.75V16.25C22 17.2165 21.3284 18 20.5 18C19.6716 18 19 17.2165 19 16.25V12.75Z" fill="#525D49"/>
</svg>
