<svg width="56" height="56" viewBox="0 0 56 56" fill="none" xmlns="http://www.w3.org/2000/svg">
<path d="M54.6796 36.9696C54.4727 36.9762 54.2677 36.9279 54.0856 36.8295L53.9904 38.1799L53.7943 39.4798L53.6766 42.3991C53.6631 42.4864 53.6631 42.5752 53.6766 42.6625L53.8223 43.2228C53.8277 43.2862 53.8277 43.3499 53.8223 43.4133C53.8217 43.5736 53.7727 43.73 53.6817 43.8619C53.5907 43.9939 53.462 44.0953 53.3124 44.1529C53.2168 44.1859 53.1165 44.203 53.0154 44.2033C53.0276 44.3899 53.0276 44.5771 53.0154 44.7637C53.011 44.9638 52.9487 45.1584 52.8361 45.324L52.4327 45.8843C52.3463 46.0006 52.2339 46.0951 52.1045 46.1603C51.9752 46.2254 51.8323 46.2595 51.6875 46.2597H49.4574C49.3225 46.2595 49.1906 46.22 49.0778 46.1461C48.965 46.0721 48.8761 45.967 48.822 45.8434C48.768 45.7198 48.7511 45.5832 48.7733 45.4502C48.7956 45.3171 48.8561 45.1935 48.9475 45.0942C49.4968 44.5767 49.9237 43.9431 50.197 43.2396C50.197 43.2116 50.7573 39.8777 50.4716 38.0622C50.4688 38.0287 50.4688 37.9949 50.4716 37.9614C50.4373 37.3079 50.2574 36.6704 49.9449 36.0955L49.3845 37.558C48.9784 38.9618 48.4026 40.3109 47.67 41.5754C47.5455 41.7412 47.4594 41.9326 47.4178 42.1358L47.4851 42.3767C47.5106 42.4582 47.522 42.5435 47.5187 42.6288C47.5185 42.8663 47.4301 43.0953 47.2706 43.2713C47.1112 43.4473 46.8921 43.5578 46.6558 43.5814C46.6389 43.8296 46.5493 44.0674 46.3981 44.265L45.9554 44.8253C45.8377 44.9744 45.688 45.0952 45.5172 45.1786C45.3465 45.262 45.1592 45.306 44.9692 45.3072H42.8288C42.6367 45.3087 42.4488 45.2507 42.291 45.1411C42.1332 45.0315 42.0132 44.8757 41.9474 44.6952C41.8817 44.5146 41.8736 44.3181 41.924 44.1328C41.9745 43.9474 42.0811 43.7822 42.2293 43.6598L43.2154 42.8754C43.3776 42.7455 43.5311 42.6051 43.6749 42.4551V42.4215C43.8946 42.1852 44.0829 41.9215 44.2352 41.6371C44.7877 40.689 45.2313 39.6815 45.5576 38.6338C45.6882 37.7057 45.7519 36.7694 45.7481 35.8322L44.7451 35.4119C43.8778 35.0943 43.1063 34.56 42.5038 33.8598C42.4703 33.8238 42.4327 33.7918 42.3918 33.7646C42.2991 33.7092 42.2016 33.6623 42.1004 33.6245C41.5639 33.3861 41.1083 32.9967 40.7893 32.5039H40.7444C40.3746 32.8233 38.7609 33.9047 34.7882 33.7982C33.866 33.7653 32.947 33.6718 32.0371 33.5181C30.9164 33.3331 27.1567 32.7224 25.8007 32.7952C25.6634 33.5142 25.6501 34.2514 25.7615 34.9749C25.7588 35.0197 25.7588 35.0646 25.7615 35.1094C25.99 35.9267 26.1087 36.7709 26.1145 37.6196C26.0948 37.7641 26.0345 37.9001 25.9408 38.0118C25.9408 38.0118 25.4253 38.6786 26.0585 40.9311C26.2042 41.6987 26.3835 42.5672 26.4451 42.7241V42.7857C26.447 42.8156 26.447 42.8455 26.4451 42.8754C26.4451 42.8754 26.4451 42.8754 26.4451 42.909C26.4621 43.0216 26.4544 43.1366 26.4224 43.246C26.3905 43.3553 26.3351 43.4564 26.2602 43.5422C26.1886 43.626 26.101 43.6946 26.0024 43.7439C26.0202 43.8053 26.0427 43.8652 26.0697 43.9232C26.1238 44.0548 26.1523 44.1955 26.1537 44.3378V44.4107C26.1527 44.5675 26.1187 44.7223 26.054 44.8651C25.9893 45.008 25.8954 45.1357 25.7783 45.2399L25.2628 45.6546C25.1203 45.7701 24.9505 45.8473 24.7697 45.8787C23.8537 46.0461 22.916 46.0574 21.9962 45.9123C21.8779 45.8931 21.7657 45.8466 21.6685 45.7766C21.5712 45.7066 21.4916 45.6149 21.4358 45.5089C21.3832 45.3996 21.3559 45.2799 21.3559 45.1587C21.3559 45.0374 21.3832 44.9177 21.4358 44.8085C21.735 44.2998 22.1133 43.8421 22.5565 43.4525C22.6417 43.3691 22.7101 43.2702 22.7582 43.1611C23.0343 42.423 23.1248 41.6283 23.0215 40.847C22.9499 40.1984 22.8301 39.556 22.6629 38.9251C22.607 38.7915 22.5583 38.655 22.5173 38.5161L22.097 37.2106C22.0186 37.373 21.7944 38.0062 21.66 39.9505L21.5983 42.8474C21.5957 43.0175 21.5404 43.1827 21.4401 43.3201C21.3397 43.4576 21.1993 43.5606 21.038 43.615H20.8979C20.9289 43.7798 20.9289 43.9489 20.8979 44.1137C20.8465 44.2774 20.742 44.4193 20.601 44.5171L20.0406 44.8757L19.9846 44.9093C19.8771 44.9708 19.7555 45.0036 19.6316 45.0046L19.1217 45.0382L17.4408 45.1335C17.326 45.1401 17.2111 45.1232 17.1032 45.0837C16.9952 45.0441 16.8965 44.9829 16.8132 44.9037C16.7289 44.8176 16.6634 44.7148 16.6209 44.6019C16.5785 44.489 16.56 44.3686 16.5667 44.2482V44.1361C16.6003 43.9793 16.6781 43.8355 16.7908 43.7215L17.777 42.6961C18.1887 42.2722 18.4957 41.758 18.6735 41.1944C18.6735 41.1104 18.7183 41.0207 18.7407 40.9199L19.2002 39.3005C19.2032 38.9725 19.1139 38.6501 18.9424 38.3704C18.6756 37.7845 18.56 37.1411 18.6062 36.499L18.5782 34.6163C18.5782 34.5602 18.5782 34.6163 18.5782 34.5378C18.5782 34.4594 18.511 34.5098 18.3485 34.4874C17.6406 34.4114 16.9783 34.1019 16.4658 33.6077L16.365 33.5068C15.5182 32.7042 14.8234 31.7551 14.3142 30.7053C13.8994 29.8758 13.5871 28.999 13.3841 28.0942C13.1823 27.2425 12.4147 25.046 9.62993 23.0513L9.45063 22.9056C9.29912 22.8739 9.14267 22.8739 8.99116 22.9056C8.92482 22.9132 8.85922 22.9264 8.79505 22.9448C7.46385 23.2651 6.09558 23.4045 4.72714 23.3595C4.61878 23.3532 4.51115 23.3806 4.41896 23.4379C4.35099 23.4809 4.28552 23.5276 4.22285 23.578C3.9597 23.7799 3.64525 23.9042 3.31513 23.9366C3.00841 23.9631 2.69956 23.9499 2.39621 23.8974H2.32337C2.04317 23.9636 1.74823 23.9195 1.4997 23.7741C0.855334 23.4267 0.0764906 22.7879 0.00364918 21.9699C-0.0132791 21.7275 0.0288627 21.4846 0.126457 21.2621C0.224052 21.0396 0.374184 20.8441 0.563968 20.6924C0.658453 20.6156 0.746528 20.5313 0.827318 20.4402L0.973001 20.2833C1.07065 20.1794 1.15879 20.0668 1.23635 19.9471C1.66586 19.2904 2.13165 18.6581 2.63154 18.0533L3.2479 17.0167L3.9539 15.3917C4.21121 14.5455 4.69803 13.7872 5.3603 13.2009L5.0129 12.9207C4.9802 12.8918 4.95019 12.8599 4.92325 12.8255C3.35436 10.8083 3.59529 10.489 3.80261 10.2256C3.85593 10.1545 3.9254 10.0971 4.00529 10.0581C4.08518 10.0191 4.1732 9.99971 4.26207 10.0015C4.36293 10.0015 4.4918 10.0015 4.82239 10.2592C4.86297 10.1915 4.91856 10.134 4.98488 10.0911C5.05038 10.0484 5.1241 10.0198 5.2013 10.0073C5.2785 9.99471 5.35748 9.99847 5.43314 10.0183C5.62925 10.0687 6.19517 10.3265 7.25417 11.6096C7.52614 11.8228 7.83605 11.9825 8.16749 12.0803C8.66057 11.335 9.44502 10.3993 10.2407 10.573H10.3191C10.3808 10.573 11.8264 11.1333 11.6359 13.2681C11.9759 13.4434 12.3302 13.5896 12.6949 13.7052C12.7754 13.7269 12.8488 13.7694 12.9078 13.8285C12.9078 13.8285 14.8073 15.4085 21.0492 14.7642H21.1445C21.2677 14.7642 24.1086 14.9883 25.9296 15.2629C26.0024 15.2629 31.8914 16.3107 42.9969 15.0387C43.6693 14.809 49.0316 13.0608 52.1413 14.8987C52.7127 15.236 53.1992 15.6997 53.5634 16.2544C53.9277 16.809 54.16 17.4397 54.2425 18.0981C54.4313 19.8301 54.4838 21.5744 54.3994 23.3146C54.3994 23.3146 54.2929 27.1416 55.2511 29.4782C55.38 29.7303 56.2541 31.5009 55.9235 33.0922C55.8627 33.4912 55.8779 33.898 55.9683 34.2913C55.9737 34.336 55.9737 34.3811 55.9683 34.4258C56.0355 34.6947 56.1308 36.7847 54.6796 36.9696Z" fill="#FC5C42"/>
</svg>
