<svg width="56" height="56" viewBox="0 0 56 56" fill="none" xmlns="http://www.w3.org/2000/svg">
<path d="M50.497 19.6423C49.8622 16.9156 45.9126 20.3895 40.2424 23.074C38.4064 23.9429 36.9589 24.5871 35.6938 24.6994C21.8639 25.9333 21.5348 17.875 21.162 14.9128C20.4616 9.33308 17.9596 4.49902 13.0194 4.49902C8.07932 4.49902 9.89969 6.0589 8.98872 6.70937C8.98872 6.70937 6 7.48931 6 8.52974C6 8.52974 8.71574 7.95103 9.37869 9.8572C10.1259 12.002 12.6685 15.7816 10.9713 22.1833C10.9713 22.1833 4.31377 32.0636 10.9682 37.4015C10.9682 37.4015 10.8153 41.5835 15.3156 43.8188C16.122 45.6579 17.019 47.4596 17.7849 48.4064L18.2107 53.813C17.4667 53.6445 16.6836 53.5493 15.7664 53.6398C13.1676 53.9003 12.8089 55.8377 14.4577 55.5569C15.6728 55.351 16.3747 55.4165 17.2857 55.6302C17.7272 55.7332 17.8285 55.9687 18.8456 55.9999L21.697 55.9952C21.7579 55.9952 21.8047 55.9937 21.8624 55.9921C21.6034 55.7581 21.4693 55.443 21.4537 55.1404C21.4459 54.9922 21.474 54.8409 21.5177 54.6881C20.9171 54.5789 20.3649 54.4198 19.8221 54.2575L20.5661 48.7153C21.3585 48.252 22.1432 47.2521 22.9777 45.1759C23.4285 45.165 23.8949 45.1432 24.3785 45.1089C25.0055 46.4238 25.8026 47.8511 26.5732 48.5858L26.9866 53.813C26.2425 53.6445 25.4579 53.5478 24.5407 53.6383C21.9419 53.8988 21.5832 55.8361 23.232 55.5554C24.4471 55.3494 25.149 55.415 26.06 55.6287C26.5015 55.7316 26.6028 55.9672 27.6199 55.9984L30.4713 55.9937C33.9561 55.9937 32.7503 54.9283 31.178 54.8019C30.2155 54.7255 29.3935 54.4946 28.5979 54.256L29.342 48.7122C30.1453 48.2426 30.9409 47.2178 31.7879 45.0823C35.3148 45.1744 40.2019 44.1059 39.8961 37.3937C39.8961 37.3937 44.1827 37.7416 44.1967 32.4848C44.1967 32.4848 47.3087 31.9076 48.6189 27.6367C48.6189 27.6398 51.1335 22.369 50.497 19.6423ZM12.1397 8.25209C11.4939 8.25209 10.9698 7.72797 10.9698 7.08218C10.9698 6.43639 11.4939 5.91227 12.1397 5.91227C12.7855 5.91227 13.3096 6.43639 13.3096 7.08218C13.3096 7.72797 12.7855 8.25209 12.1397 8.25209Z" fill="#FC5C42"/>
<path d="M13.0194 3.71883C13.804 3.71883 14.5434 3.83894 15.2422 4.05264C15.8755 3.08084 16.4932 1.58336 14.4389 1.38681C13.829 -0.358689 11.7091 -0.563033 10.9682 1.38681C10.1087 1.20743 8.11358 1.69411 10.3208 3.98401C10.9666 3.81086 11.8339 3.71883 13.0194 3.71883Z" fill="#FC5C42"/>
</svg>
