<svg width="56" height="56" viewBox="0 0 56 56" fill="none" xmlns="http://www.w3.org/2000/svg">
<path d="M54.0407 27.1629C54.0407 27.1042 54.0407 27.1042 54.0407 27.1629C54.0407 27.0455 54.0407 26.9868 53.982 26.9281V26.8694C53.982 26.8107 53.982 26.752 53.982 26.6346V26.5759C53.982 26.5172 53.982 26.4585 53.982 26.3998C53.982 26.341 53.982 26.341 53.982 26.2823C53.982 26.2236 53.982 26.1649 53.982 26.1062C53.982 26.0475 53.982 26.0475 53.982 25.9888C53.982 25.9301 53.982 25.8714 53.982 25.8127C53.982 25.754 53.982 25.754 53.982 25.6953C53.982 25.6366 53.982 25.5779 53.982 25.5192C53.982 25.5192 53.982 25.5192 53.982 25.4604C53.982 22.9948 55.3322 18.1221 55.978 15.5978C56.0367 15.4216 55.9193 15.1868 55.8019 15.0694C55.6258 14.952 55.3909 14.952 55.2148 15.1281C50.577 19.942 50.166 24.345 48.581 24.5211C48.4636 24.5211 48.4049 24.5211 48.2874 24.5211C48.0526 24.5211 47.8178 24.5211 47.5243 24.4624C47.0546 24.4037 46.585 24.2276 46.1153 23.9928L40.2447 21.4097C40.1272 21.351 39.9511 21.2923 39.8337 21.2336C39.5989 20.1182 39.9511 19.0614 40.3621 18.5918C41.2427 17.4764 41.3601 16.7719 39.775 17.2415C38.4248 17.7112 37.1332 18.5331 36.1939 19.2963C36.0178 19.4137 35.8417 19.5898 35.6656 19.7072C34.3153 19.2963 32.9651 18.944 31.5561 18.6505C29.8536 17.1828 26.0964 16.1261 26.0964 16.1261C24.9223 15.7739 24.0417 15.5391 23.3372 15.3042C22.2218 14.952 21.2238 14.1888 20.4606 13.3082C20.4019 13.2495 20.3432 13.1908 20.3432 13.1321C20.2257 12.956 19.9322 12.956 19.7561 13.1321C17.584 15.1868 16.5272 17.0067 15.9402 18.2983C14.5899 18.5331 13.4158 18.7679 12.3591 19.0027C7.42774 20.353 2.32028 24.2276 0.324258 25.9301C-0.145394 26.2823 -0.0866874 26.9868 0.382964 27.3391L0.911323 27.6326C1.32227 27.8674 1.67451 28.1022 1.90933 28.2784C2.20286 28.5132 2.02675 28.9828 1.67451 28.9241L0.735203 28.8067C0.441671 28.8067 0.206845 29.2764 0.559084 29.5112C7.0168 34.5012 13.2984 36.7908 18.9929 37.4953C19.0516 37.7301 19.169 37.9649 19.2277 38.1998C19.8148 40.2545 20.6954 41.6047 23.3372 42.8963C23.5133 42.955 23.7481 42.8376 23.6307 42.6614C23.4546 41.8983 23.2198 40.4306 23.7481 39.1391C23.983 38.6107 23.983 38.141 23.8656 37.7301C27.3292 37.6714 30.5581 37.0256 33.376 36.145C34.3153 35.8515 35.2546 35.4993 36.1939 35.147C37.1332 35.9102 38.4248 36.7321 39.775 37.2017C41.3014 37.6714 41.2427 36.9669 40.3621 35.8515C40.0098 35.3818 39.6576 34.5012 39.775 33.5032C41.0665 32.8575 42.2994 32.0943 43.4735 31.2724C45.176 30.157 47.2307 28.748 47.3481 28.6306C47.7004 28.3958 47.9939 28.2784 48.2874 28.2197C48.4636 28.1609 48.6397 28.1609 48.8158 28.1609C48.9919 28.1609 49.1093 28.2197 49.2855 28.2197C49.2855 28.2197 49.3442 28.2197 49.3442 28.2784C50.6357 28.8654 51.1641 31.5659 54.7452 35.3231C54.9213 35.4993 55.0387 35.6754 55.2148 35.8515C55.3909 36.0276 55.6258 36.0276 55.8019 35.9102C55.978 35.7928 56.0367 35.6167 55.978 35.3818C55.3909 33.3271 54.3929 29.746 54.0407 27.1629Z" fill="#FC5C42"/>
</svg>
