<svg width="56" height="56" viewBox="0 0 56 56" fill="none" xmlns="http://www.w3.org/2000/svg">
<path d="M55.7858 18.8302C53.476 19.5903 52.3871 19.1443 52.0143 18.9767L51.962 18.9537C52.1023 18.7925 52.2447 18.6291 52.364 18.4365C53.566 16.5141 52.5336 13.1761 50.0144 13.8923C49.3004 14.0179 48.6847 14.3823 48.2177 14.931C47.7549 15.4733 47.5036 16.2963 47.6607 17.046C47.8115 17.7433 48.1989 18.2731 48.6156 18.6626C48.3098 18.7883 47.9915 18.8972 47.667 18.9998C46.5927 15.8293 44.1091 14.1059 41.636 13.1991C38.4843 12.0432 30.5247 11.6432 24.6717 12.3531C18.8207 13.0609 11.7804 15.8209 8.76489 18.6584C8.76489 18.6584 6.26453 17.0209 4.9641 17.1381C3.66366 17.2596 1.79154 17.7643 1.32665 17.9067C0.382209 18.204 3.21762 20.8635 6.70429 20.8635C6.70429 20.8635 4.99132 21.9273 4.63532 23.8748C4.28142 25.8265 3.57152 27.5982 2.15382 28.3081C2.15382 28.3081 1.07326 28.9279 0.461785 28.84C-0.149692 28.752 -0.413549 32.9193 1.35806 33.4491C3.13176 33.9831 6.73571 34.6909 9.92711 34.515C9.92711 34.515 11.9668 34.4249 13.6504 33.537C13.6504 33.537 13.7091 36.6405 13.9457 38.2948C14.1823 39.9491 14.1823 41.3689 13.4724 42.3134C12.7625 43.2599 12.5259 43.7332 12.5259 44.2044C12.5259 44.6755 12.7185 44.841 13.1625 44.841C13.6043 44.841 15.2021 44.841 15.556 44.841C15.91 44.841 16.0879 44.485 16.0879 44.0892C16.0879 43.6892 16.4858 43.8693 16.5738 43.5552C16.6617 43.2474 16.7078 42.6694 16.7958 41.4716C16.8837 40.2758 18.9171 38.0686 19.1537 34.404C19.1537 34.404 29.9614 38.2362 37.408 33.9831C37.408 33.9831 37.9399 38.0812 40.5994 39.2225C43.261 40.3638 40.5994 42.4055 39.9795 43.2892C39.3597 44.1771 39.3995 44.3028 39.5251 44.5394C39.6654 44.8096 40.1764 44.8431 40.8863 44.8431C41.5941 44.8431 42.995 44.8431 43.3489 44.8431C43.7049 44.8431 43.3489 44.0913 43.3489 43.7353C43.3489 43.3793 43.8725 43.283 44.0463 42.839C44.2243 42.3972 45.6545 39.3021 45.7425 37.9723C45.8304 36.6426 43.9709 36.2007 43.6149 34.5171C43.261 32.8313 47.4073 30.7644 48.1193 24.3167C48.224 23.3765 48.2345 22.5137 48.18 21.7116C48.2847 21.6551 48.3894 21.5965 48.4941 21.5378C49.3024 21.075 50.1024 20.5787 50.8646 19.9694C50.8646 19.9694 51.7023 20.4154 53.2666 20.3107C56.9543 20.0657 55.8737 18.8008 55.7858 18.8302ZM49.6459 16.1016C49.8071 15.8921 50.0794 15.712 50.3327 15.6723C51.5264 15.4796 51.2039 16.8701 50.8186 17.291C50.6448 17.4837 50.4228 17.6637 50.1778 17.8355C50.071 17.7412 49.9579 17.6449 49.87 17.5444C49.6166 17.2575 49.4721 16.9643 49.4428 16.7319C49.426 16.5078 49.4742 16.311 49.6459 16.1016Z" fill="#FC5C42"/>
</svg>
