<svg width="56" height="56" viewBox="0 0 56 56" fill="none" xmlns="http://www.w3.org/2000/svg">
<path d="M34.9225 25.4358C32.8067 24.0259 29.936 23.311 26.3898 23.311C22.8436 23.311 19.9728 24.0259 17.857 25.4358C15.3409 27.1125 14.011 29.7453 14.011 33.0494C14.011 37.4711 18.5667 41.0207 21.8932 43.6124C23.0614 44.5225 24.6457 45.7571 24.9418 46.3012L24.8588 49.525C24.8383 50.3226 25.4682 50.9859 26.2659 51.0064C26.2786 51.0068 26.2911 51.0068 26.3037 51.0068C27.0843 51.0068 27.727 50.3842 27.7472 49.5993L27.8325 46.2876C28.0946 45.7286 29.8238 44.3853 30.9767 43.4896C34.4482 40.7929 38.7685 37.4368 38.7685 33.0495C38.7686 29.7453 37.4387 27.1126 34.9225 25.4358Z" fill="#5A9C24"/>
<path d="M33.5906 5.00684C28.8236 5.00684 24.9453 8.88512 24.9453 13.6522V19.0105C25.6392 17.835 26.4907 16.6967 27.4521 15.6781C28.6436 14.4157 31.0197 12.2862 33.5461 12.2083C34.3442 12.1828 35.0101 12.8103 35.0346 13.6077C35.0592 14.4053 34.4326 15.0717 33.6352 15.0962C31.6212 15.1584 28.0136 18.59 26.5279 22.2975H33.5906C38.3576 22.2975 42.2359 18.4192 42.2359 13.6523C42.2359 8.88512 38.3576 5.00684 33.5906 5.00684Z" fill="#5A9C24"/>
<path d="M22.0559 16.9701C21.3126 16.1577 20.5642 15.5967 19.8176 15.2961C19.0774 14.9981 18.719 14.1565 19.0169 13.4164C19.3149 12.6762 20.1562 12.3178 20.8967 12.6158C21.294 12.7758 21.683 12.9746 22.0649 13.2119C22.1403 11.2158 22.7251 9.34803 23.693 7.73503C22.8337 7.34749 21.8818 7.12988 20.8796 7.12988C17.0923 7.12988 14.0112 10.2111 14.0112 13.9982C14.0112 17.7854 17.0924 20.8666 20.8796 20.8666H22.0563C22.0563 20.8619 22.0559 20.8574 22.0559 20.8527V16.9701Z" fill="#5A9C24"/>
</svg>
