<svg width="145" height="58" viewBox="0 0 145 58" fill="none" xmlns="http://www.w3.org/2000/svg">
<path d="M8.585 44.11H17.075V35.38H22.955V58H17.075V48.67H8.585V58H2.705V35.38H8.585V44.11ZM40.2452 40.36H33.2552V44.14H39.8552V49.12H33.2552V53.02H40.2452V58H27.3752V35.38H40.2452V40.36ZM50.0446 35.38V53.02H57.0946V58H44.1646V35.38H50.0446ZM58.7914 58L62.6314 35.38H68.4514L72.9814 47.44L77.4814 35.38H83.3014L87.1414 58H81.2914L79.3414 44.98L74.0014 58H71.6614L66.5914 44.98L64.6414 58H58.7914ZM103.416 40.36H96.4261V44.14H103.026V49.12H96.4261V53.02H103.416V58H90.5461V35.38H103.416V40.36ZM119.635 49.6L116.995 42.07L114.355 49.6H119.635ZM121.195 54.07H112.795L111.445 58H105.175L113.785 35.38H120.205L128.815 58H122.545L121.195 54.07ZM136.948 35.38V53.02H143.998V58H131.068V35.38H136.948Z" fill="black"/>
<rect x="45" width="8" height="16" rx="4" fill="#FC5C42"/>
<rect x="69" width="8" height="16" rx="4" fill="#383B65"/>
<rect x="93" width="8" height="16" rx="4" fill="#525D49"/>
</svg>
