<svg width="26" height="26" viewBox="0 0 26 26" fill="none" xmlns="http://www.w3.org/2000/svg">
<path d="M18.7889 23.7334C17.6166 23.747 16.5056 23.2113 15.7861 22.2858C15.0667 21.3602 14.8216 20.1514 15.1239 19.0187L8.34227 15.1426C7.17041 16.2162 5.45268 16.4434 4.04197 15.7114C2.63126 14.9794 1.82805 13.4442 2.03117 11.8679C2.23429 10.2916 3.40046 9.01008 4.95066 8.65963C6.50085 8.30918 8.10487 8.96445 8.96627 10.3001L15.1229 6.78032C15.0432 6.47936 15.001 6.16971 14.9972 5.85841C14.9817 4.04568 16.2406 2.47098 18.0123 2.08713C19.784 1.70328 21.5818 2.61571 22.318 4.27231C23.0541 5.92892 22.5264 7.87473 21.0541 8.93237C19.5818 9.99001 17.5693 9.869 16.2344 8.64257L9.57077 12.4505C9.56417 12.7314 9.52491 13.0106 9.45377 13.2825L16.2344 17.1576C17.4826 16.012 19.34 15.8352 20.7821 16.7246C22.2241 17.614 22.8997 19.3532 22.4363 20.9829C21.9728 22.6125 20.4831 23.7359 18.7889 23.7334ZM18.7889 18.3167C17.8914 18.3167 17.1639 19.0443 17.1639 19.9417C17.1639 20.8392 17.8914 21.5667 18.7889 21.5667C19.6863 21.5667 20.4139 20.8392 20.4139 19.9417C20.4139 19.0443 19.6863 18.3167 18.7889 18.3167ZM5.78886 10.7334C4.89139 10.7334 4.16386 11.4609 4.16386 12.3584C4.16386 13.2559 4.89139 13.9834 5.78886 13.9834C6.68632 13.9834 7.41386 13.2559 7.41386 12.3584C7.41386 11.4609 6.68632 10.7334 5.78886 10.7334ZM18.7889 4.23341C17.8914 4.23341 17.1639 4.96094 17.1639 5.85841C17.1639 6.75587 17.8914 7.48341 18.7889 7.48341C19.6863 7.48341 20.4139 6.75587 20.4139 5.85841C20.4139 4.96094 19.6863 4.23341 18.7889 4.23341Z" fill="#767676"/>
</svg>
